<svg width="195" height="104" viewBox="0 0 195 104" xmlns="http://www.w3.org/2000/svg" xmlns:xlink="http://www.w3.org/1999/xlink"><defs><filter x="-2.8%" y="-2.5%" width="105.7%" height="105%" filterUnits="objectBoundingBox" id="c"><feGaussianBlur stdDeviation="1" in="SourceAlpha" result="shadowBlurInner1"/><feOffset dy="2" in="shadowBlurInner1" result="shadowOffsetInner1"/><feComposite in="shadowOffsetInner1" in2="SourceAlpha" operator="arithmetic" k2="-1" k3="1" result="shadowInnerInner1"/><feColorMatrix values="0 0 0 0 0.414939991 0 0 0 0 0.271761379 0 0 0 0 0.070416455 0 0 0 1 0" in="shadowInnerInner1"/></filter><filter x="-7.8%" y="-9.3%" width="115.6%" height="118.5%" filterUnits="objectBoundingBox" id="f"><feGaussianBlur stdDeviation="1" in="SourceAlpha" result="shadowBlurInner1"/><feOffset dy="2" in="shadowBlurInner1" result="shadowOffsetInner1"/><feComposite in="shadowOffsetInner1" in2="SourceAlpha" operator="arithmetic" k2="-1" k3="1" result="shadowInnerInner1"/><feColorMatrix values="0 0 0 0 0.414939991 0 0 0 0 0.271761379 0 0 0 0 0.070416455 0 0 0 1 0" in="shadowInnerInner1"/></filter><filter x="-21.5%" y="-21.5%" width="143%" height="143.1%" filterUnits="objectBoundingBox" id="i"><feGaussianBlur stdDeviation="1" in="SourceAlpha" result="shadowBlurInner1"/><feOffset dy="2" in="shadowBlurInner1" result="shadowOffsetInner1"/><feComposite in="shadowOffsetInner1" in2="SourceAlpha" operator="arithmetic" k2="-1" k3="1" result="shadowInnerInner1"/><feColorMatrix values="0 0 0 0 0.414939991 0 0 0 0 0.271761379 0 0 0 0 0.070416455 0 0 0 1 0" in="shadowInnerInner1"/></filter><filter x="-4.7%" y="-12.2%" width="109.3%" height="124.3%" filterUnits="objectBoundingBox" id="l"><feGaussianBlur stdDeviation="1" in="SourceAlpha" result="shadowBlurInner1"/><feOffset dy="2" in="shadowBlurInner1" result="shadowOffsetInner1"/><feComposite in="shadowOffsetInner1" in2="SourceAlpha" operator="arithmetic" k2="-1" k3="1" result="shadowInnerInner1"/><feColorMatrix values="0 0 0 0 0.414939991 0 0 0 0 0.271761379 0 0 0 0 0.070416455 0 0 0 1 0" in="shadowInnerInner1"/></filter><filter x="-3.1%" y="-4.9%" width="106.1%" height="109.8%" filterUnits="objectBoundingBox" id="o"><feGaussianBlur stdDeviation="1" in="SourceAlpha" result="shadowBlurInner1"/><feOffset dy="2" in="shadowBlurInner1" result="shadowOffsetInner1"/><feComposite in="shadowOffsetInner1" in2="SourceAlpha" operator="arithmetic" k2="-1" k3="1" result="shadowInnerInner1"/><feColorMatrix values="0 0 0 0 0.414939991 0 0 0 0 0.271761379 0 0 0 0 0.070416455 0 0 0 1 0" in="shadowInnerInner1"/></filter><filter x="-6.2%" y="-3.6%" width="112.4%" height="107.3%" filterUnits="objectBoundingBox" id="r"><feGaussianBlur stdDeviation="1" in="SourceAlpha" result="shadowBlurInner1"/><feOffset dy="2" in="shadowBlurInner1" result="shadowOffsetInner1"/><feComposite in="shadowOffsetInner1" in2="SourceAlpha" operator="arithmetic" k2="-1" k3="1" result="shadowInnerInner1"/><feColorMatrix values="0 0 0 0 0.414939991 0 0 0 0 0.271761379 0 0 0 0 0.070416455 0 0 0 1 0" in="shadowInnerInner1"/></filter><filter x="-6.2%" y="-3.6%" width="112.4%" height="107.3%" filterUnits="objectBoundingBox" id="u"><feGaussianBlur stdDeviation="1" in="SourceAlpha" result="shadowBlurInner1"/><feOffset dy="2" in="shadowBlurInner1" result="shadowOffsetInner1"/><feComposite in="shadowOffsetInner1" in2="SourceAlpha" operator="arithmetic" k2="-1" k3="1" result="shadowInnerInner1"/><feColorMatrix values="0 0 0 0 0.414939991 0 0 0 0 0.271761379 0 0 0 0 0.070416455 0 0 0 1 0" in="shadowInnerInner1"/></filter><filter x="-19.7%" y="-19.6%" width="139.5%" height="139.1%" filterUnits="objectBoundingBox" id="x"><feGaussianBlur stdDeviation="1.5" in="SourceAlpha" result="shadowBlurInner1"/><feOffset dy="2" in="shadowBlurInner1" result="shadowOffsetInner1"/><feComposite in="shadowOffsetInner1" in2="SourceAlpha" operator="arithmetic" k2="-1" k3="1" result="shadowInnerInner1"/><feColorMatrix values="0 0 0 0 0.414939991 0 0 0 0 0.271761379 0 0 0 0 0.070416455 0 0 0 1 0" in="shadowInnerInner1"/></filter><filter x="-19.7%" y="-19.6%" width="139.5%" height="139.1%" filterUnits="objectBoundingBox" id="z"><feGaussianBlur stdDeviation="1.5" in="SourceAlpha" result="shadowBlurInner1"/><feOffset dy="2" in="shadowBlurInner1" result="shadowOffsetInner1"/><feComposite in="shadowOffsetInner1" in2="SourceAlpha" operator="arithmetic" k2="-1" k3="1" result="shadowInnerInner1"/><feColorMatrix values="0 0 0 0 0.414939991 0 0 0 0 0.271761379 0 0 0 0 0.070416455 0 0 0 1 0" in="shadowInnerInner1"/></filter><filter x="-27.3%" y="-20.2%" width="154.6%" height="140.5%" filterUnits="objectBoundingBox" id="C"><feGaussianBlur stdDeviation="1.5" in="SourceAlpha" result="shadowBlurInner1"/><feOffset dy="2" in="shadowBlurInner1" result="shadowOffsetInner1"/><feComposite in="shadowOffsetInner1" in2="SourceAlpha" operator="arithmetic" k2="-1" k3="1" result="shadowInnerInner1"/><feColorMatrix values="0 0 0 0 0.414939991 0 0 0 0 0.271761379 0 0 0 0 0.070416455 0 0 0 1 0" in="shadowInnerInner1"/></filter><filter x="-19.7%" y="-19.6%" width="139.5%" height="139.1%" filterUnits="objectBoundingBox" id="F"><feGaussianBlur stdDeviation="1.5" in="SourceAlpha" result="shadowBlurInner1"/><feOffset dy="2" in="shadowBlurInner1" result="shadowOffsetInner1"/><feComposite in="shadowOffsetInner1" in2="SourceAlpha" operator="arithmetic" k2="-1" k3="1" result="shadowInnerInner1"/><feColorMatrix values="0 0 0 0 0.414939991 0 0 0 0 0.271761379 0 0 0 0 0.070416455 0 0 0 1 0" in="shadowInnerInner1"/></filter><filter x="-35.2%" y="-20.1%" width="170.3%" height="140.2%" filterUnits="objectBoundingBox" id="I"><feGaussianBlur stdDeviation="1.5" in="SourceAlpha" result="shadowBlurInner1"/><feOffset dy="2" in="shadowBlurInner1" result="shadowOffsetInner1"/><feComposite in="shadowOffsetInner1" in2="SourceAlpha" operator="arithmetic" k2="-1" k3="1" result="shadowInnerInner1"/><feColorMatrix values="0 0 0 0 0.414939991 0 0 0 0 0.271761379 0 0 0 0 0.070416455 0 0 0 1 0" in="shadowInnerInner1"/></filter><filter x="-21.7%" y="-19.9%" width="143.3%" height="139.7%" filterUnits="objectBoundingBox" id="L"><feGaussianBlur stdDeviation="1.5" in="SourceAlpha" result="shadowBlurInner1"/><feOffset dy="2" in="shadowBlurInner1" result="shadowOffsetInner1"/><feComposite in="shadowOffsetInner1" in2="SourceAlpha" operator="arithmetic" k2="-1" k3="1" result="shadowInnerInner1"/><feColorMatrix values="0 0 0 0 0.414939991 0 0 0 0 0.271761379 0 0 0 0 0.070416455 0 0 0 1 0" in="shadowInnerInner1"/></filter><filter x="-24.6%" y="-20.2%" width="149.2%" height="140.5%" filterUnits="objectBoundingBox" id="O"><feGaussianBlur stdDeviation="1.5" in="SourceAlpha" result="shadowBlurInner1"/><feOffset dy="2" in="shadowBlurInner1" result="shadowOffsetInner1"/><feComposite in="shadowOffsetInner1" in2="SourceAlpha" operator="arithmetic" k2="-1" k3="1" result="shadowInnerInner1"/><feColorMatrix values="0 0 0 0 0.414939991 0 0 0 0 0.271761379 0 0 0 0 0.070416455 0 0 0 1 0" in="shadowInnerInner1"/></filter><filter x="-27.3%" y="-20.2%" width="154.6%" height="140.5%" filterUnits="objectBoundingBox" id="Q"><feGaussianBlur stdDeviation="1.5" in="SourceAlpha" result="shadowBlurInner1"/><feOffset dy="2" in="shadowBlurInner1" result="shadowOffsetInner1"/><feComposite in="shadowOffsetInner1" in2="SourceAlpha" operator="arithmetic" k2="-1" k3="1" result="shadowInnerInner1"/><feColorMatrix values="0 0 0 0 0.414939991 0 0 0 0 0.271761379 0 0 0 0 0.070416455 0 0 0 1 0" in="shadowInnerInner1"/></filter><filter x="-17.9%" y="-19.6%" width="135.9%" height="139.2%" filterUnits="objectBoundingBox" id="T"><feGaussianBlur stdDeviation="1.5" in="SourceAlpha" result="shadowBlurInner1"/><feOffset dy="2" in="shadowBlurInner1" result="shadowOffsetInner1"/><feComposite in="shadowOffsetInner1" in2="SourceAlpha" operator="arithmetic" k2="-1" k3="1" result="shadowInnerInner1"/><feColorMatrix values="0 0 0 0 0.414939991 0 0 0 0 0.271761379 0 0 0 0 0.070416455 0 0 0 1 0" in="shadowInnerInner1"/></filter><filter x="-14%" y="-19.8%" width="128.1%" height="139.6%" filterUnits="objectBoundingBox" id="W"><feGaussianBlur stdDeviation="1.5" in="SourceAlpha" result="shadowBlurInner1"/><feOffset dy="2" in="shadowBlurInner1" result="shadowOffsetInner1"/><feComposite in="shadowOffsetInner1" in2="SourceAlpha" operator="arithmetic" k2="-1" k3="1" result="shadowInnerInner1"/><feColorMatrix values="0 0 0 0 0.414939991 0 0 0 0 0.271761379 0 0 0 0 0.070416455 0 0 0 1 0" in="shadowInnerInner1"/></filter><filter x="-24.2%" y="-19.5%" width="148.4%" height="138.9%" filterUnits="objectBoundingBox" id="Z"><feGaussianBlur stdDeviation="1.5" in="SourceAlpha" result="shadowBlurInner1"/><feOffset dy="2" in="shadowBlurInner1" result="shadowOffsetInner1"/><feComposite in="shadowOffsetInner1" in2="SourceAlpha" operator="arithmetic" k2="-1" k3="1" result="shadowInnerInner1"/><feColorMatrix values="0 0 0 0 0.414939991 0 0 0 0 0.271761379 0 0 0 0 0.070416455 0 0 0 1 0" in="shadowInnerInner1"/></filter><filter x="-19.5%" y="-20%" width="139.1%" height="140%" filterUnits="objectBoundingBox" id="ac"><feGaussianBlur stdDeviation="1.5" in="SourceAlpha" result="shadowBlurInner1"/><feOffset dy="2" in="shadowBlurInner1" result="shadowOffsetInner1"/><feComposite in="shadowOffsetInner1" in2="SourceAlpha" operator="arithmetic" k2="-1" k3="1" result="shadowInnerInner1"/><feColorMatrix values="0 0 0 0 0.414939991 0 0 0 0 0.271761379 0 0 0 0 0.070416455 0 0 0 1 0" in="shadowInnerInner1"/></filter><path d="M35.068 0c-.663 0-1.283.33-1.658.882-2.971 4.38-6.972 6.315-9.093 7.079-.166.054-.342.113-.489.166-1.311.427-2.638.653-3.83.653-1.144 0-2.029-.206-2.491-.581a2.002 2.002 0 0 0-2.147-.241 2.044 2.044 0 0 0-1.124 1.867c.02.992-.44 2.76-1.49 4.424a4.097 4.097 0 0 1-.327-1.3 2.031 2.031 0 0 0-1.314-1.78 1.997 1.997 0 0 0-2.143.5C1.576 19.437-1.267 26.735.516 33.364c.25.93.6 1.86 1.045 2.771a2.04 2.04 0 0 0-.704 1.282 40.694 40.694 0 0 0-.359 5.39c0 11.4 5.934 21.53 17.16 29.292 8.298 5.74 16.52 8.166 16.866 8.266a1.958 1.958 0 0 0 1.148-.011c.342-.106 8.486-2.666 16.84-8.536 11.217-7.884 17.146-17.915 17.146-29.01 0-1.785-.12-3.589-.355-5.361a2.034 2.034 0 0 0-.7-1.283c.45-.917.807-1.858 1.06-2.8 1.782-6.628-1.06-13.927-8.446-21.694a2.022 2.022 0 0 0-1.46-.621c-.235 0-.464.04-.682.121a2.033 2.033 0 0 0-1.315 1.78 4.12 4.12 0 0 1-.346 1.343c-1.068-1.676-1.535-3.462-1.513-4.466a2.046 2.046 0 0 0-1.122-1.868 2.012 2.012 0 0 0-2.15.24c-.462.377-1.353.585-2.508.585-1.096 0-2.316-.195-3.527-.564-.305-.11-.615-.216-.938-.319-2.074-.768-6.005-2.705-8.93-7.017A2 2 0 0 0 35.069 0Zm0 .223c.592 0 1.144.294 1.478.786 2.959 4.364 6.942 6.325 9.043 7.103.318.102.63.208.942.32 1.231.376 2.472.573 3.59.573 1.205 0 2.145-.225 2.646-.633a1.792 1.792 0 0 1 1.914-.214 1.82 1.82 0 0 1 1 1.664c-.025 1.131.52 3.116 1.766 4.92.318-.627.496-1.224.533-1.778a1.809 1.809 0 0 1 1.17-1.585 1.801 1.801 0 0 1 1.907.446c7.33 7.705 10.154 14.932 8.394 21.48a15.45 15.45 0 0 1-1.127 2.924c.414.288.694.74.76 1.246a40.57 40.57 0 0 1 .354 5.331c0 11.02-5.896 20.988-17.052 28.829-8.325 5.849-16.439 8.4-16.78 8.505a1.76 1.76 0 0 1-1.022.01c-.344-.1-8.533-2.516-16.802-8.235C6.619 64.195.719 54.13.719 42.806c0-1.792.12-3.596.357-5.36.069-.507.349-.96.764-1.246-.477-.95-.85-1.923-1.112-2.895-1.76-6.548 1.064-13.775 8.393-21.48a1.79 1.79 0 0 1 1.908-.446 1.807 1.807 0 0 1 1.17 1.584c.035.543.207 1.127.513 1.741 1.228-1.795 1.767-3.763 1.744-4.884a1.82 1.82 0 0 1 1-1.663 1.787 1.787 0 0 1 1.913.215c.5.407 1.435.63 2.63.63 1.214 0 2.566-.23 3.903-.665.146-.053.319-.111.489-.167 2.145-.772 6.194-2.73 9.201-7.162a1.785 1.785 0 0 1 1.476-.785Z" id="b"/><path d="M35.093 12.927h-.028c-9.46 0-12.817 7.273-12.817 7.273s.718 2.372 5.974 5.882c4.274 2.856 5.67 4.853 6.856 8.443 1.187-3.59 2.584-5.587 6.858-8.443 5.256-3.51 5.973-5.882 5.973-5.882s-3.356-7.273-12.816-7.273m-.004 12.666h-.02c-5.452 0-10.151-5.393-10.151-5.393s3.395-5.393 10.15-5.393h.02c6.756 0 10.152 5.393 10.152 5.393s-4.7 5.393-10.151 5.393" id="e"/><path d="M35.065 15.605a4.65 4.65 0 0 0-4.654 4.645 4.647 4.647 0 0 0 4.654 4.641 4.647 4.647 0 0 0 4.655-4.641 4.65 4.65 0 0 0-4.655-4.645m-1.023 5.31c-.873 0-1.58-.756-1.58-1.688 0-.932.707-1.687 1.58-1.687.875 0 1.583.755 1.583 1.687s-.708 1.687-1.583 1.687" id="h"/><path d="M15.635 18.474c5.216-4.554 12.012-7.309 19.443-7.309 7.44 0 14.238 2.758 19.455 7.318a19.162 19.162 0 0 0 1.938-2.038c-1.914-2.404-2.612-5.21-2.58-6.662-1.542 1.252-4.568 1.398-7.913.373-.32-.115-.64-.225-.965-.329a20.886 20.886 0 0 1-9.945-7.794 20.879 20.879 0 0 1-10.097 7.85c-.172.056-.342.115-.512.174-3.464 1.128-6.625 1.016-8.213-.274.031 1.445-.663 4.237-2.56 6.635.547.683 1.21 1.37 1.95 2.056" id="k"/><path d="M64.835 40.802c.003.15.006.3.006.45 0 16.616-13.325 30.086-29.763 30.086-16.436 0-29.761-13.47-29.761-30.086 0-.158.004-.316.006-.472a19.888 19.888 0 0 1-2.472-3.09 38.65 38.65 0 0 0-.341 5.116c0 26.165 32.568 35.604 32.568 35.604s32.569-10.167 32.569-35.604c0-1.729-.115-3.428-.336-5.09a19.917 19.917 0 0 1-2.476 3.086" id="n"/><path d="M27.557 28.855C21.792 25.105 10.787 19 10.412 13.08c-23.831 25.05 10.632 34.846 10.632 34.846s-7.583 1.649-7.583 6.953c0 9.155 13.126 13.11 13.126 13.11s7.624-2.486 7.624-22.231c0-8.687-1.356-13.455-6.654-16.903" id="q"/><path d="M59.767 13.079C83.599 38.13 49.134 47.926 49.134 47.926s7.583 1.649 7.583 6.953c0 9.155-13.125 13.11-13.125 13.11s-7.625-2.486-7.625-22.231c0-8.687 1.356-13.455 6.655-16.903 5.765-3.75 16.77-9.855 17.145-15.776Z" id="t"/><path d="M22.405 11.58c-2.682 0-4.846-2.29-4.846-5.139 0-2.83 2.164-5.12 4.846-5.12 2.683 0 4.847 2.29 4.847 5.12 0 2.849-2.164 5.138-4.847 5.138Zm0-11.522c-3.541 0-6.331 2.868-6.331 6.383 0 3.534 2.79 6.4 6.33 6.4 3.542 0 6.332-2.866 6.332-6.4 0-3.515-2.79-6.383-6.331-6.383Z" id="w"/><path d="M59.471 11.58c-2.682 0-4.846-2.29-4.846-5.139 0-2.83 2.164-5.12 4.846-5.12 2.683 0 4.847 2.29 4.847 5.12 0 2.849-2.164 5.138-4.847 5.138Zm0-11.522c-3.54 0-6.33 2.868-6.33 6.383 0 3.534 2.79 6.4 6.33 6.4 3.542 0 6.332-2.866 6.332-6.4 0-3.515-2.79-6.383-6.332-6.383Z" id="y"/><path d="M75.166 6.423h-1.162V1.446h.984c1.86 0 2.772 1.19 2.772 2.47 0 1.497-1.091 2.507-2.594 2.507Zm4.078-2.543c0-2.09-1.484-3.606-4.203-3.606H71.91c.411.437.625 1.532.646 3.07v6.162c0 1.226-.017 2.56-.07 3.12h1.59c-.053-.56-.07-1.894-.07-3.12v-2h.965c.196 0 .375 0 .59-.037 1.037 1.803 2.522 3.858 3.524 5.156h1.984c-1.413-1.352-2.932-3.786-4.238-5.409 1.234-.397 2.414-1.406 2.414-3.336Z" id="B"/><path d="M106.435 11.58c-2.683 0-4.847-2.29-4.847-5.139 0-2.83 2.164-5.12 4.847-5.12 2.683 0 4.847 2.29 4.847 5.12 0 2.849-2.164 5.138-4.847 5.138Zm0-11.522c-3.541 0-6.331 2.868-6.331 6.383 0 3.534 2.79 6.4 6.33 6.4 3.542 0 6.332-2.866 6.332-6.4 0-3.515-2.79-6.383-6.331-6.383Z" id="E"/><path d="M141.19 11.381V3.502c0-1.244.036-2.686.054-3.228h-2.153c.418.443.628 1.563.644 3.137h.004v2.7h.003v3.287c0 .811-.036 2.236-.072 3.227h3.666c1.216 0 2.325.036 2.862.072v-1.37c-.537.036-1.646.054-2.862.054h-2.146" id="H"/><path d="m154.526 7.234 1.843-4.544 1.842 4.544h-3.685ZM156.654.04h-.41l-4.221 9.845a30.87 30.87 0 0 1-1.288 2.74h1.645c.143-.486.394-1.118.787-2.073l.876-2.11h4.669l.894 2.146c.34.811.625 1.515.804 2.037h1.86c-.41-.74-.894-1.73-1.341-2.74L156.654.04Z" id="K"/><path d="M188.758 11.417h-1.825V1.482h1.807c2.665 0 4.775 2.254 4.775 4.96 0 2.704-2.11 4.975-4.757 4.975Zm.09-11.143h-4.015c.409.434.622 1.517.646 3.037 0 .033-.004.063-.003.097h.004l.001.098v2.602h.004v3.29c0 1.226-.035 2.669-.09 3.227h3.452c3.38 0 6.153-2.776 6.153-6.184 0-3.407-2.773-6.167-6.153-6.167Z" id="N"/><path d="M89.406 6.423h-1.163V1.446h.984c1.86 0 2.772 1.19 2.772 2.47 0 1.497-1.09 2.507-2.593 2.507Zm4.077-2.543c0-2.09-1.484-3.606-4.203-3.606h-3.132c.404.43.616 1.496.644 2.99 0 .048-.003.09-.002.139h.004v6.103c0 1.226-.018 2.56-.07 3.12h1.59c-.053-.56-.071-1.894-.071-3.12v-2h.966c.197 0 .375 0 .59-.037 1.037 1.803 2.522 3.858 3.523 5.156h1.985c-1.413-1.352-2.933-3.786-4.238-5.409 1.234-.397 2.414-1.406 2.414-3.336Z" id="P"/><path d="M47.213 11.253a49.151 49.151 0 0 1-.188-1.512L45.988.04h-.412L40.89 10.335 36.258.04h-.375l-1.288 9.322c-.088.653-.181 1.319-.268 1.895-.106.698-.28 1.11-.521 1.368h1.844c.018-.685.108-1.532.233-2.596l.787-6.437 3.952 9.195h.358l4.006-9.213.608 6.6c.107 1.207.16 1.874.16 2.451l1.98.002c-.242-.259-.415-.67-.52-1.371l-.001-.003" id="S"/><path d="M132.393.274c-.143.433-.358 1.028-.966 2.362l-3.272 7.681-2.04-4.706 1.288-2.813c.608-1.316 1.002-2.144 1.252-2.524h-1.538c-.197.56-.429 1.137-.93 2.308l-.68 1.605-.679-1.55c-.59-1.299-.787-1.785-.984-2.363h-1.663c.447.704.697 1.208 1.27 2.506l1.36 3.012-1.95 4.597-3.524-7.969c-.375-.83-.696-1.568-.894-2.146h-2c.192.16.469.437.702.876.253.482.506 1.008.78 1.612l4.667 10.133h.215l2.61-5.751 2.613 5.751h.178l4.543-10.078c.17-.368.312-.674.44-.944.122-.252.242-.493.362-.721a2.87 2.87 0 0 1 .709-.877h-1.869" id="V"/><path d="M177.99 3.388c.016-1.562.082-2.679.498-3.12l-1.949.003c.02.757.054 2.2.054 3.228v6.153l-6.62-7.938c-.608-.686-.93-1.047-1.467-1.714h-.34c.035.975.07 2.4.07 3.481v6.532c0 .956-.035 2.11-.07 2.616h1.52c-.035-.506-.07-1.66-.07-2.599l.035-6.873 6.748 8.083c.573.667.875 1.028 1.324 1.605h.32c-.053-1.046-.053-1.859-.053-2.616V3.388" id="Y"/><path d="M12.241.156a8.303 8.303 0 0 1-1.117.112c-.46.023-1.04.035-1.811.035H3.48C2.71.303 2.13.291 1.672.27A8.525 8.525 0 0 1 .554.156C.454.986.271 1.608 0 1.896c.379-.132.921-.213 1.672-.272.35-.028.74-.052 1.19-.072.774-.023 2.238-.034 2.71-.039.035.667.053 1.586.053 2.325v5.59c0 1.225-.018 2.668-.053 3.227h1.591c-.054-.56-.072-2.002-.072-3.228V3.838c0-.739 0-1.658.018-2.325.486.004 2.02.014 2.823.04.45.02.841.043 1.192.07.75.06 1.29.142 1.669.273l-.001-.003c-.27-.29-.451-.91-.55-1.737" id="ab"/><linearGradient x1="24.244%" y1="8.4%" x2="50%" y2="100%" id="a"><stop stop-color="#7A541F" stop-opacity=".582" offset="0%"/><stop stop-color="#A57838" stop-opacity=".525" offset="100%"/></linearGradient><linearGradient x1="16.16%" y1="20.532%" x2="50%" y2="85.418%" id="d"><stop stop-color="#7A541F" stop-opacity=".582" offset="0%"/><stop stop-color="#A57838" stop-opacity=".525" offset="100%"/></linearGradient><linearGradient x1="16.16%" y1="8.6%" x2="50%" y2="99.76%" id="g"><stop stop-color="#7A541F" stop-opacity=".582" offset="0%"/><stop stop-color="#A57838" stop-opacity=".525" offset="100%"/></linearGradient><linearGradient x1="16.16%" y1="43.85%" x2="50%" y2="57.391%" id="j"><stop stop-color="#7A541F" stop-opacity=".582" offset="0%"/><stop stop-color="#A57838" stop-opacity=".525" offset="100%"/></linearGradient><linearGradient x1="16.16%" y1="33.742%" x2="50%" y2="69.541%" id="m"><stop stop-color="#7A541F" stop-opacity=".582" offset="0%"/><stop stop-color="#A57838" stop-opacity=".525" offset="100%"/></linearGradient><linearGradient x1="38.366%" y1="8.4%" x2="50%" y2="100%" id="p"><stop stop-color="#7A541F" stop-opacity=".582" offset="0%"/><stop stop-color="#A57838" stop-opacity=".525" offset="100%"/></linearGradient><linearGradient x1="38.365%" y1="8.4%" x2="50%" y2="100%" id="s"><stop stop-color="#7A541F" stop-opacity=".582" offset="0%"/><stop stop-color="#A57838" stop-opacity=".525" offset="100%"/></linearGradient><linearGradient x1="16.798%" y1="8.4%" x2="50%" y2="100%" id="v"><stop stop-color="#7A541F" stop-opacity=".582" offset="0%"/><stop stop-color="#A57838" stop-opacity=".525" offset="100%"/></linearGradient><linearGradient x1="31.39%" y1="8.4%" x2="50%" y2="100%" id="A"><stop stop-color="#7A541F" stop-opacity=".582" offset="0%"/><stop stop-color="#A57838" stop-opacity=".525" offset="100%"/></linearGradient><linearGradient x1="16.801%" y1="8.4%" x2="50%" y2="100%" id="D"><stop stop-color="#7A541F" stop-opacity=".582" offset="0%"/><stop stop-color="#A57838" stop-opacity=".525" offset="100%"/></linearGradient><linearGradient x1="38.924%" y1="8.4%" x2="50%" y2="100%" id="G"><stop stop-color="#7A541F" stop-opacity=".582" offset="0%"/><stop stop-color="#A57838" stop-opacity=".525" offset="100%"/></linearGradient><linearGradient x1="21.573%" y1="8.4%" x2="50%" y2="100%" id="J"><stop stop-color="#7A541F" stop-opacity=".582" offset="0%"/><stop stop-color="#A57838" stop-opacity=".525" offset="100%"/></linearGradient><linearGradient x1="27.07%" y1="8.4%" x2="50%" y2="100%" id="M"><stop stop-color="#7A541F" stop-opacity=".582" offset="0%"/><stop stop-color="#A57838" stop-opacity=".525" offset="100%"/></linearGradient><linearGradient x1="16.16%" y1="15.158%" x2="50%" y2="91.877%" id="R"><stop stop-color="#7A541F" stop-opacity=".582" offset="0%"/><stop stop-color="#A57838" stop-opacity=".525" offset="100%"/></linearGradient><linearGradient x1="16.16%" y1="29.132%" x2="50%" y2="75.082%" id="U"><stop stop-color="#7A541F" stop-opacity=".582" offset="0%"/><stop stop-color="#A57838" stop-opacity=".525" offset="100%"/></linearGradient><linearGradient x1="28.147%" y1="8.4%" x2="50%" y2="100%" id="X"><stop stop-color="#7A541F" stop-opacity=".582" offset="0%"/><stop stop-color="#A57838" stop-opacity=".525" offset="100%"/></linearGradient><linearGradient x1="16.16%" y1="10.287%" x2="50%" y2="97.731%" id="aa"><stop stop-color="#7A541F" stop-opacity=".582" offset="0%"/><stop stop-color="#A57838" stop-opacity=".525" offset="100%"/></linearGradient></defs><g fill="none" fill-rule="evenodd"><g transform="translate(62.488)"><use fill="url(#a)" xlink:href="#b"/><use fill="#000" filter="url(#c)" xlink:href="#b"/></g><g transform="translate(62.488)"><use fill="url(#d)" xlink:href="#e"/><use fill="#000" filter="url(#f)" xlink:href="#e"/></g><g transform="translate(62.488)"><use fill="url(#g)" xlink:href="#h"/><use fill="#000" filter="url(#i)" xlink:href="#h"/></g><g transform="translate(62.488)"><use fill="url(#j)" xlink:href="#k"/><use fill="#000" filter="url(#l)" xlink:href="#k"/></g><g transform="translate(62.488)"><use fill="url(#m)" xlink:href="#n"/><use fill="#000" filter="url(#o)" xlink:href="#n"/></g><g transform="translate(62.488)"><use fill="url(#p)" xlink:href="#q"/><use fill="#000" filter="url(#r)" xlink:href="#q"/></g><g transform="translate(62.488)"><use fill="url(#s)" xlink:href="#t"/><use fill="#000" filter="url(#u)" xlink:href="#t"/></g><g transform="translate(0 91.105)"><use fill="url(#v)" xlink:href="#w"/><use fill="#000" filter="url(#x)" xlink:href="#w"/></g><g transform="translate(0 91.105)"><use fill="url(#v)" xlink:href="#y"/><use fill="#000" filter="url(#z)" xlink:href="#y"/></g><g transform="translate(0 91.105)"><use fill="url(#A)" xlink:href="#B"/><use fill="#000" filter="url(#C)" xlink:href="#B"/></g><g transform="translate(0 91.105)"><use fill="url(#D)" xlink:href="#E"/><use fill="#000" filter="url(#F)" xlink:href="#E"/></g><g transform="translate(0 91.105)"><use fill="url(#G)" xlink:href="#H"/><use fill="#000" filter="url(#I)" xlink:href="#H"/></g><g transform="translate(0 91.105)"><use fill="url(#J)" xlink:href="#K"/><use fill="#000" filter="url(#L)" xlink:href="#K"/></g><g transform="translate(0 91.105)"><use fill="url(#M)" xlink:href="#N"/><use fill="#000" filter="url(#O)" xlink:href="#N"/></g><g transform="translate(0 91.105)"><use fill="url(#A)" xlink:href="#P"/><use fill="#000" filter="url(#Q)" xlink:href="#P"/></g><g transform="translate(0 91.105)"><use fill="url(#R)" xlink:href="#S"/><use fill="#000" filter="url(#T)" xlink:href="#S"/></g><g transform="translate(0 91.105)"><use fill="url(#U)" xlink:href="#V"/><use fill="#000" filter="url(#W)" xlink:href="#V"/></g><g transform="translate(0 91.105)"><use fill="url(#X)" xlink:href="#Y"/><use fill="#000" filter="url(#Z)" xlink:href="#Y"/></g><g transform="translate(0 91.105)"><use fill="url(#aa)" xlink:href="#ab"/><use fill="#000" filter="url(#ac)" xlink:href="#ab"/></g></g></svg>