<svg xmlns="http://www.w3.org/2000/svg" width="64" height="72" viewBox="0 0 64 72"><g fill="none"><path fill="#FFD890" d="M31.9866102,22.122778 C29.6125122,22.122778 27.688203,20.2419466 27.688203,17.9209553 C27.688203,15.5988811 29.6125122,13.7164255 31.9866102,13.7164255 C34.3623477,13.7164255 36.2866569,15.5988811 36.2866569,17.9209553 C36.2866569,20.2419466 34.3623477,22.122778 31.9866102,22.122778 Z M41.3857209,17.8754775 C41.3857209,17.8754775 38.2492227,12.9936536 32.0090176,12.9936536 C32.006285,12.9936536 32.0035524,12.9936536 31.9997267,12.9936536 C31.9969941,12.9936536 31.9926219,12.9936536 31.9904358,12.9936536 C25.7496843,12.9936536 22.6137325,17.8754775 22.6137325,17.8754775 C22.6137325,17.8754775 26.9547685,22.7583842 31.9904358,22.7583842 C31.9926219,22.7583842 31.9969941,22.7583842 31.9997267,22.7583842 C32.0035524,22.7583842 32.006285,22.7583842 32.0090176,22.7583842 C37.044685,22.7583842 41.3857209,17.8754775 41.3857209,17.8754775 L41.3857209,17.8754775 Z"/><path fill="#FFD890" d="M31.0433107,15.4678618 C30.236642,15.4678618 29.5819069,16.1516528 29.5819069,16.9951575 C29.5819069,17.8392035 30.236642,18.5224532 31.0433107,18.5224532 C31.8505258,18.5224532 32.5047144,17.8392035 32.5047144,16.9951575 C32.5047144,16.1516528 31.8505258,15.4678618 31.0433107,15.4678618"/><path fill="#FFE0A6" d="M2.22895336,33.707703 C2.89243286,34.7185009 3.66521705,35.6502542 4.51342149,36.5051283 C4.51068887,36.6464343 4.50740973,36.7899059 4.50740973,36.9322946 C4.50740973,51.9740728 16.8162115,64.1675339 31.9997267,64.1675339 C47.1837885,64.1675339 59.4925903,51.9740728 59.4925903,36.9322946 C59.4925903,36.7964027 59.4904042,36.6615935 59.487125,36.5246188 C60.3364225,35.6713688 61.1097532,34.740157 61.7743258,33.7326075 C61.9787256,35.2366229 62.0852976,36.7747466 62.0852976,38.3399404 C62.0852976,61.3663188 31.9997267,70.5690739 31.9997267,70.5690739 C31.9997267,70.5690739 1.91415583,62.0252053 1.91415583,38.3399404 C1.91415583,36.7666256 2.022914,35.2203808 2.22895336,33.707703 Z M25.0512272,25.7106506 C29.9458915,28.8318345 31.1985233,33.147893 31.1985233,41.0117605 C31.1985233,58.8856137 24.1554753,61.1356814 24.1554753,61.1356814 C24.1554753,61.1356814 12.0303054,57.5559299 12.0303054,49.2686859 C12.0303054,44.4669895 19.0361899,42.9738021 19.0361899,42.9738021 C19.0361899,42.9738021 -12.8009888,34.1072578 9.2135234,11.4290011 C9.56001928,16.7894246 19.726449,22.3155172 25.0512272,25.7106506 Z M49.9710582,16.3221945 C45.1518142,12.1934611 38.8711664,9.69759678 31.9997267,9.69759678 C25.1348453,9.69759678 18.8563836,12.1907541 14.0387792,16.313532 C13.3550783,15.6930851 12.7435185,15.0704725 12.2374378,14.4521912 C13.9901386,12.2811682 14.6317572,9.75444401 14.6038845,8.44587482 C16.0696604,9.61367943 18.9902819,9.71546305 22.1896303,8.69383704 C22.3464826,8.64077962 22.5038813,8.5877222 22.6634662,8.53628899 C25.9650145,7.37606401 29.4971957,5.03287515 31.9904358,1.4303847 C34.4476054,4.98144193 37.9147503,7.30838873 41.1774955,8.48593858 C41.4769904,8.58014257 41.7732061,8.67976058 42.0677822,8.78370981 C45.157826,9.71167323 47.9532936,9.57957109 49.3780803,8.44587482 C49.347475,9.76039943 49.9934657,12.3012001 51.7603761,14.4770957 C51.2553884,15.0915872 50.6503869,15.7087858 49.9710582,16.3221945 Z M31.9997267,30.8431437 C30.9044937,27.5936475 29.6136052,25.7848227 25.6660662,23.2001684 C20.8107516,20.0232201 20.1467256,17.8754775 20.1467256,17.8754775 C20.1467256,17.8754775 23.2476998,11.2920263 31.9866102,11.2920263 C31.9909824,11.2920263 31.9959011,11.2920263 31.9997267,11.2920263 C32.0040989,11.2920263 32.0079246,11.2920263 32.0139363,11.2920263 C40.7517537,11.2920263 43.8521814,17.8754775 43.8521814,17.8754775 C43.8521814,17.8754775 43.1892484,20.0232201 38.3344804,23.2001684 C34.3858482,25.7848227 33.0955063,27.5936475 31.9997267,30.8431437 Z M51.9882764,49.2686859 C51.9882764,57.5559299 39.8636531,61.1356814 39.8636531,61.1356814 C39.8636531,61.1356814 32.8200585,58.8856137 32.8200585,41.0117605 C32.8200585,33.147893 34.0732368,28.8318345 38.9679011,25.7106506 C44.2932258,22.3155172 54.4585625,16.7894246 54.8061514,11.4290011 C76.8212102,34.1072578 44.983485,42.9738021 44.983485,42.9738021 C44.983485,42.9738021 51.9882764,44.4669895 51.9882764,49.2686859 Z M63.5390501,29.6834602 C65.1441895,23.8325262 62.5525752,17.3573556 55.8368947,10.4376936 C55.5669121,10.1599543 55.1843457,10.000782 54.7875697,10.000782 C54.6186939,10.000782 54.4541903,10.0294763 54.2978846,10.0857822 C53.760652,10.2817698 53.3901091,10.773363 53.3545851,11.3369627 C53.3135958,11.9552441 53.0867886,12.6222516 52.6801751,13.3206605 L52.677989,13.3244503 L52.6752564,13.3206605 C51.3592279,11.5816765 50.7864713,9.59039913 50.8110648,8.47565194 C50.8225418,7.92233886 50.5066513,7.40638253 50.0049427,7.16112732 C49.8125664,7.06746473 49.5945036,7.01819713 49.3737081,7.01819713 C49.0386892,7.01819713 48.7146008,7.12918459 48.4615604,7.33112762 C47.9685962,7.72472704 47.0296689,7.95049177 45.8857953,7.95049177 C44.8364702,7.95049177 43.6723752,7.76912203 42.5186641,7.42641441 C42.2191692,7.32138238 41.9333375,7.22609559 41.6453196,7.13514001 C39.6625324,6.41507504 35.9341493,4.61328842 33.1714731,0.621529762 C32.90313,0.232261557 32.4577134,0 31.9805984,0 C31.5034834,0 31.0586133,0.232261557 30.7902703,0.62098836 C27.9789535,4.6815051 24.1937319,6.47462929 22.2000143,7.17845219 C22.0273128,7.23421662 21.8693676,7.28619124 21.7496789,7.32787921 C20.4795584,7.73393088 19.203426,7.94832616 18.0595524,7.94832616 C16.908574,7.94832616 15.9991589,7.72905826 15.500183,7.33221043 C15.2465961,7.12972599 14.9230542,7.01765573 14.5885818,7.01765573 C14.3677863,7.01765573 14.1491769,7.06746473 13.9557076,7.16166872 C13.4539991,7.40638253 13.137562,7.92233886 13.150132,8.47511054 C13.1725395,9.58011249 12.6047016,11.5578548 11.3045222,13.2898006 L11.3017896,13.2935904 L11.299057,13.2892592 C10.9050136,12.6011369 10.6853111,11.9449574 10.6454149,11.3391283 C10.6093444,10.773363 10.2382549,10.2812284 9.69938277,10.0852408 C9.54089096,10.0283935 9.3742013,9.99915782 9.20532554,9.99915782 C8.81346821,9.99915782 8.43363439,10.1594129 8.16310527,10.438235 C1.44742478,17.3568141 -1.14418955,23.8319848 0.460949906,29.684543 C0.715083323,30.609258 1.08507972,31.5345144 1.56055514,32.4343249 L1.56219471,32.4375733 L1.56000862,32.4391975 C1.13973206,32.6530514 0.851167669,33.0558547 0.787770946,33.516588 C0.570254602,35.1028965 0.460403383,36.725479 0.460403383,38.3399404 C0.460403383,48.5183024 5.87918366,57.5700063 16.1303245,64.5172798 C23.7570597,69.6865883 31.2755831,71.8543628 31.5931133,71.944777 C31.7237324,71.9810509 31.8581772,72 31.9920754,72 C32.1358111,72 32.2779072,71.9788853 32.4139915,71.9366559 C32.7293356,71.8408277 40.223812,69.5209192 47.857652,64.2644449 C58.1033276,57.208891 63.5193752,48.2443529 63.5193752,38.3399404 C63.5193752,36.7428039 63.4100706,35.1283424 63.1952868,33.5420339 C63.1329832,33.081842 62.8455118,32.6795801 62.4263283,32.4651848 L62.4230492,32.4635606 L62.4246887,32.4597708 C62.9061759,31.5534635 63.281091,30.6195446 63.5390501,29.6834602 L63.5390501,29.6834602 Z"/></g></svg>